HIERARCHY
ROOT Hips
{
	OFFSET 0.00000 0.00000 0.00000
	CHANNELS 6 Xposition Yposition Zposition Yrotation Zrotation Xrotation 
	JOINT Lumbar
	{
		OFFSET 0 0 0
		CHANNELS 3 Zrotation Xrotation Yrotation
		JOINT Neck
		{
			OFFSET 0.00 0.2701 0.00
			CHANNELS 3 Zrotation Xrotation Yrotation
			End Site
			{
				OFFSET 0.00 0.1379 0.00
			}
		}
		JOINT RightShoulder
		{
			OFFSET 0.0119 0.2289 0.1181
			CHANNELS 3 Zrotation Xrotation Yrotation
			JOINT RightElbow
			{
				OFFSET 0.00 -0.1475 0.00
				CHANNELS 2 Zrotation Yrotation
				JOINT RightWrist
				{
					OFFSET 0.00 -0.1605 0.00
					CHANNELS 2 Zrotation Xrotation
					End Site
					{
						OFFSET 0.0040 -0.1068 0.0006
					}
				}
			}
		}
		JOINT LeftShoulder
		{
			OFFSET 0.0119 0.2289 -0.1181
			CHANNELS 3 Zrotation Xrotation Yrotation
			JOINT LeftElbow
			{
				OFFSET 0.00 -0.1475 0.00
				CHANNELS 2 Zrotation Yrotation
				JOINT LeftWrist
				{
					OFFSET 0.00 -0.1605 0.00
					CHANNELS 2 Zrotation Xrotation
					End Site
					{
						OFFSET 0.0040 -0.1068 -0.0006
					}
				}
			}
		}
	}
	JOINT RightHip
	{
		OFFSET 0.0316 -0.0424 0.0458
		CHANNELS 3 Zrotation Xrotation Yrotation
		JOINT RightKnee
		{
			OFFSET 0.00 -0.2438 0.00
			CHANNELS 1 Zrotation
			JOINT RightAnkle
			{
				OFFSET 0.00 -0.2449 0.00
				CHANNELS 3 Zrotation Xrotation Yrotation
				End Site
				{
					OFFSET 0.1237 -0.0542 0.0051
				}
			}
		}
	}
	JOINT LeftHip
	{
		OFFSET 0.0316 -0.0424 -0.0458
		CHANNELS 3 Zrotation Xrotation Yrotation
		JOINT LeftKnee
		{
			OFFSET 0.00 -0.2438 0.00
			CHANNELS 1 Zrotation
			JOINT LeftAnkle
			{
				OFFSET 0.00 -0.2449 0.00
				CHANNELS 3 Zrotation Xrotation Yrotation
				End Site
				{
					OFFSET 0.1237 -0.0542 -0.0051
				}
			}
		}
	}
}
MOTION
Frames: 22
Frame Time: 0.02
-0.00117 -5e-05 -0.00067 535.50021 -36.3063 1.11776 49.38314 -0.53435 -3.17466 -10.79788 6.01536 -1.017 -6.03025 -5.43591 -30.92504 14.31631 102.31569 11.02497 4.03208 -18.91346 9.48473 -7.07471 29.68266 -97.07766 12.90362 -0.78941 39.60206 -4.40376 -6.72123 -21.25605 -6.57867 -3.27888 -3.80126 42.74329 4.37945 3.03829 -25.96833 -6.87013 3.05214 3.67271
-0.00123 -9e-05 -0.00074 535.55038 -36.33105 1.12147 49.40675 -0.51836 -3.18001 -10.81012 6.0608 -1.0177 -6.02652 -5.47933 -30.76244 14.3796 102.0204 11.01204 4.03461 -19.02509 9.5407 -7.02944 29.82118 -97.09616 12.9161 -0.79388 39.59765 -4.43801 -6.95216 -21.24993 -6.57193 -3.27074 -3.79768 42.77648 4.47462 3.38787 -25.99082 -6.85417 3.00024 3.65223
-0.00128 -0.00013 -0.00081 535.60042 -36.35581 1.12514 49.43021 -0.5024 -3.18534 -10.82236 6.10627 -1.01839 -6.02292 -5.52267 -30.59959 14.44303 101.72529 10.99914 4.03705 -19.13665 9.59665 -6.98441 29.95973 -97.1146 12.92858 -0.79833 39.59336 -4.47219 -7.18257 -21.24388 -6.56519 -3.26258 -3.7941 42.8097 4.56961 3.73676 -26.01333 -6.83824 2.94845 3.6318
-0.00133 -0.00017 -0.00088 535.65044 -36.3805 1.12883 49.45373 -0.48646 -3.19066 -10.83455 6.1516 -1.01909 -6.01921 -5.56596 -30.43736 14.50618 101.43077 10.98625 4.03957 -19.24797 9.65247 -6.9393 30.09792 -97.13304 12.94102 -0.80279 39.58898 -4.50634 -7.41283 -21.23778 -6.55846 -3.25445 -3.79053 42.84282 4.66451 4.08534 -26.03576 -6.82233 2.89669 3.61138
-0.00139 -0.00021 -0.00095 535.70059 -36.40514 1.13259 49.47742 -0.47052 -3.19602 -10.84677 6.19684 -1.01978 -6.01532 -5.60929 -30.27569 14.56907 101.13639 10.97333 4.04219 -19.35925 9.70825 -6.89389 30.23587 -97.15155 12.95346 -0.80726 39.58442 -4.54054 -7.6435 -21.23159 -6.55175 -3.24637 -3.78698 42.87583 4.75954 4.43442 -26.05815 -6.80638 2.84485 3.59094
-0.00144 -0.00025 -0.00102 535.75038 -36.43014 1.13608 49.50039 -0.45451 -3.2013 -10.85907 6.24277 -1.02048 -6.01234 -5.65264 -30.11037 14.63362 100.8398 10.96048 4.04423 -19.47139 9.76455 -6.84966 30.37561 -97.16983 12.96603 -0.81165 39.58067 -4.57466 -7.87331 -21.22584 -6.54494 -3.23806 -3.78333 42.90948 4.8544 4.78287 -26.08091 -6.7905 2.79317 3.57053
-0.0015 -0.00029 -0.00109 535.80084 -36.45442 1.14009 49.5248 -0.43865 -3.2067 -10.8711 6.28727 -1.02117 -6.0075 -5.69594 -29.95252 14.69475 100.54784 10.9475 4.04749 -19.58169 9.81976 -6.80316 30.51173 -97.18854 12.97831 -0.81621 39.57535 -4.60892 -8.10474 -21.2192 -6.53833 -3.23018 -3.77986 42.94187 4.94955 5.13231 -26.10289 -6.77451 2.7412 3.55007
-0.00155 -0.00034 -0.00116 535.8507 -36.47929 1.14363 49.54787 -0.42267 -3.21203 -10.88355 6.33309 -1.02187 -6.00444 -5.7392 -29.78789 14.75904 100.25188 10.93466 4.04955 -19.69365 9.87591 -6.75864 30.65095 -97.2069 12.9909 -0.82061 39.57138 -4.64303 -8.33442 -21.2134 -6.53156 -3.22195 -3.77625 42.97532 5.04436 5.48064 -26.12561 -6.75862 2.68952 3.52967
-0.0016 -0.00038 -0.00122 535.89976 -36.50522 1.14655 49.56932 -0.40643 -3.2171 -10.89584 6.38059 -1.02258 -6.00335 -5.78281 -29.61434 14.82726 99.94969 10.92187 4.05039 -19.80791 9.93352 -6.71702 30.79507 -97.22464 13.00371 -0.82483 39.56948 -4.67706 -8.56309 -21.20857 -6.52448 -3.21312 -3.77236 43.01049 5.1391 5.82861 -26.14917 -6.74286 2.63809 3.50927
-0.00166 -0.00042 -0.00132 535.95322 -36.52605 1.15293 49.60015 -0.39136 -3.22317 -10.90702 6.41863 -1.02321 -5.99029 -5.82558 -29.4902 14.8731 99.6793 10.90844 4.05901 -19.90976 9.98369 -6.66012 30.91433 -97.24537 13.01476 -0.83015 39.55693 -4.71186 -8.80095 -21.19799 -6.51886 -3.20722 -3.76978 43.03704 5.23529 6.18167 -26.16769 -6.72636 2.58492 3.48866
-0.0017 -0.00046 -0.00134 535.99751 -36.55701 1.15207 49.61114 -0.37406 -3.22746 -10.92183 6.47644 -1.02402 -6.00286 -5.86939 -29.2631 14.96595 99.3445 10.89661 4.05074 -20.0372 10.04892 -6.63454 31.08387 -97.26015 13.02981 -0.83311 39.56601 -4.74485 -9.01726 -21.19962 -6.51035 -3.1955 -3.76463 43.08095 5.32773 6.52199 -26.19698 -6.7114 2.53562 3.4686
-0.00162 -0.00052 -0.00118 536.01592 -36.62127 1.13082 49.5685 -0.34849 -3.22382 -10.93715 6.59065 -1.02527 -6.08369 -5.92221 -28.74021 15.19026 98.8083 10.8875 3.99938 -20.2403 10.16099 -6.70299 31.4103 -97.25598 13.05389 -0.82968 39.64195 -4.77473 -9.19327 -21.2345 -6.49221 -3.1644 -3.75074 43.1797 5.41535 6.84382 -26.25499 -6.70078 2.49538 3.44923
-0.00153 -0.00059 -0.00094 536.0255 -36.6947 1.10251 49.50633 -0.32113 -3.21884 -10.95852 6.72427 -1.0267 -6.19078 -5.97505 -28.11671 15.46077 98.21157 10.8806 3.93039 -20.46792 10.28706 -6.80115 31.78351 -97.24655 13.08253 -0.82389 39.7381 -4.8028 -9.34528 -21.28178 -6.47143 -3.12798 -3.73451 43.29445 5.49806 7.14989 -26.32392 -6.69167 2.45931 3.43057
-0.00146 -0.00065 -0.00073 536.0393 -36.76031 1.07767 49.45189 -0.29592 -3.21662 -10.98244 6.84766 -1.02807 -6.28703 -6.02366 -27.54742 15.70925 97.65913 10.87336 3.86741 -20.68098 10.40325 -6.88076 32.12322 -97.24096 13.11008 -0.81909 39.82023 -4.83002 -9.49454 -21.32343 -6.45308 -3.09637 -3.72052 43.39726 5.57958 7.45238 -26.38849 -6.68181 2.42234 3.41213
-0.00131 -0.00071 -0.00055 536.05125 -36.84126 1.0513 49.40003 -0.26482 -3.20581 -10.98128 6.97724 -1.02935 -6.37815 -6.08955 -26.94065 15.96446 97.0374 10.86205 3.81307 -20.90924 10.53471 -6.98276 32.51554 -97.22832 13.13268 -0.81454 39.92326 -4.86283 -9.6968 -21.36468 -6.42983 -3.05514 -3.70182 43.52013 5.676 7.79996 -26.45077 -6.67228 2.38119 3.39138
-0.00133 -0.00077 -0.00029 536.06616 -36.89257 1.02694 49.34095 -0.24588 -3.21196 -11.0372 7.0983 -1.03087 -6.48688 -6.12015 -26.38991 16.21375 96.54353 10.86136 3.73629 -21.11077 10.63721 -7.04388 32.80833 -97.23028 13.16771 -0.809 39.987 -4.88539 -9.78875 -21.4102 -6.41576 -3.03209 -3.69208 43.6046 5.73962 8.05016 -26.52013 -6.66235 2.34972 3.3756
-0.00176 -0.00083 0.00015 536.08165 -36.8595 1.00587 49.24273 -0.25802 -3.2701 -11.21865 7.19327 -1.03297 -6.63047 -6.04767 -26.00647 16.45923 96.43704 10.87489 3.60465 -21.23884 10.66051 -6.99561 32.82413 -97.26765 13.22753 -0.80124 39.9432 -4.86444 -9.53059 -21.4606 -6.43126 -3.06582 -3.71035 43.58383 5.71887 8.03266 -26.60848 -6.65159 2.344 3.37347
-0.00236 -0.00088 0.00068 536.1027 -36.797 0.98789 49.14224 -0.28286 -3.34406 -11.46199 7.27886 -1.0353 -6.79131 -5.94109 -25.6873 16.69229 96.45843 10.90133 3.45097 -21.3373 10.65351 -6.90319 32.73689 -97.32362 13.30168 -0.79306 39.85906 -4.83602 -9.17054 -21.51583 -6.45554 -3.11722 -3.7373 43.52383 5.6642 7.91809 -26.70309 -6.64025 2.34784 3.37626
-0.00292 -0.00093 0.00119 536.12704 -36.7473 0.97099 49.0587 -0.30396 -3.40812 -11.69844 7.36692 -1.03753 -6.95025 -5.85329 -25.34393 16.91588 96.40754 10.9319 3.30494 -21.44602 10.65748 -6.82385 32.6901 -97.37191 13.37426 -0.78455 39.78825 -4.82147 -8.89249 -21.57108 -6.47328 -3.15688 -3.75843 43.47763 5.62192 7.84983 -26.79358 -6.62875 2.34732 3.37672
-0.00334 -0.00097 0.00162 536.12468 -36.69756 0.94301 48.90789 -0.31698 -3.48518 -11.84984 7.46207 -1.03973 -7.08889 -5.75007 -24.96718 17.20654 96.41124 10.92198 3.16637 -21.57186 10.67328 -6.77486 32.6699 -97.40628 13.42443 -0.77624 39.73512 -4.7632 -8.46823 -21.61642 -6.50118 -3.21133 -3.78709 43.44555 5.59278 7.77216 -26.89022 -6.61908 2.34714 3.37768
-0.00409 -0.00105 0.00223 536.18167 -36.64429 0.93936 48.89614 -0.34916 -3.53695 -12.18749 7.54144 -1.04206 -7.26871 -5.67285 -24.68745 17.35192 96.33627 10.99736 3.00966 -21.65122 10.65769 -6.652 32.57172 -97.48726 13.52673 -0.76982 39.64053 -4.79353 -8.31795 -21.68463 -6.51069 -3.24009 -3.80256 43.37886 5.52763 7.69071 -26.97492 -6.60547 2.34829 3.37867
-0.00577 -0.00122 0.00324 536.38111 -36.55804 0.99861 49.27287 -0.43695 -3.53289 -13.06976 7.56685 -1.0446 -7.59703 -5.65963 -24.56024 17.1187 95.97854 11.3228 2.78693 -21.63942 10.55882 -6.33684 32.26392 -97.57044 13.74868 -0.7471 39.3986 -5.07732 -9.00727 -21.80788 -6.4618 -3.18628 -3.77584 43.18908 5.37685 7.62721 -27.02938 -6.58078 2.35237 3.37926
